<?xml version="1.0" encoding="utf-8"?>
<!-- Uploaded to: SVG Repo, www.svgrepo.com, Generator: SVG Repo Mixer Tools -->
<svg fill="#000000" version="1.1" id="Layer_1" xmlns="http://www.w3.org/2000/svg" xmlns:xlink="http://www.w3.org/1999/xlink" 
	 width="800px" height="800px" viewBox="0 0 256 228" enable-background="new 0 0 256 228" xml:space="preserve">
<path d="M154.829,134.509c-0.863,11.045-6.323,21.937-16.246,32.411c12.486,9.643,25.194,15.346,25.325,15.405l1.31,0.583
	l-5.497,12.387l-1.312-0.581c-1.623-0.72-15.988-7.241-29.945-18.514c-13.955,11.273-28.321,17.793-29.945,18.514l-1.311,0.581
	l-5.496-12.386l1.308-0.584c0.131-0.059,12.867-5.785,25.326-15.406c-7.059-7.455-11.894-15.196-14.38-23.032l-0.593-1.868h14.271
	l0.371,0.873c2.13,5.004,5.643,10.064,10.449,15.055c7.556-7.843,11.836-15.714,12.744-23.437H90.505v-13.554h30.718v-9.33h13.553
	v9.33h30.718v13.554H154.829z M214.5,2h-173v17h173V2z M254,73h-6.479c-3.67,0-7.329-0.396-10.914-1.181l0,0
	c-19.312-4.665-32.212-22.875-30.207-42.642H49.304l0.006,0.062c2.031,20.076-11.304,38.487-31.012,42.817l0,0
	C15.441,72.683,12.525,73,9.599,73H2.083v17h27.201c-5.966,4.279-9.857,11.268-9.857,19.169c0,10.583,6.971,19.537,16.572,22.521
	V211H14v15h228v-15h-22v-79.827c9.648-2.956,16.664-11.931,16.664-22.548c0-7.575-3.576-14.311-9.127-18.625H254V73z M50,211
	v-79.304c9.609-2.979,16.589-11.938,16.589-22.526c0-7.902-3.891-14.891-9.857-19.169H198.63c-5.551,4.314-9.127,11.05-9.127,18.625
	c0,10.555,6.935,19.489,16.497,22.496V211H50z"/>
</svg>