<?xml version="1.0" encoding="iso-8859-1"?>
<!-- Uploaded to: SVG Repo, www.svgrepo.com, Generator: SVG Repo Mixer Tools -->
<svg version="1.1" id="Layer_1" xmlns="http://www.w3.org/2000/svg" xmlns:xlink="http://www.w3.org/1999/xlink" 
	 viewBox="0 0 512 512" xml:space="preserve">
<path style="fill:#7AA937;" d="M0,442.182c0,12.853,10.418,23.273,23.273,23.273h465.455c12.851,0,23.273-10.42,23.273-23.273
	V325.818H0V442.182z"/>
<path style="fill:#DF6246;" d="M512,69.818c0-12.854-10.422-23.273-23.273-23.273H23.273C10.418,46.545,0,56.964,0,69.818v116.364
	h512V69.818z"/>
<rect y="186.182" style="fill:#D6E5F6;" width="512" height="139.636"/>
<path style="fill:#668E2F;" d="M256,465.455h232.727c12.851,0,23.273-10.42,23.273-23.273V325.818H256V465.455z"/>
<path style="fill:#DD512A;" d="M488.727,46.545H256v139.636h256V69.818C512,56.964,501.578,46.545,488.727,46.545z"/>
<rect x="256" y="186.182" style="fill:#BCD6F2;" width="256" height="139.636"/>
<path style="fill:#8CB7E8;" d="M256,325.818c-38.498,0-69.818-31.322-69.818-69.818s31.322-69.818,69.818-69.818
	c38.499,0,69.818,31.322,69.818,69.818S294.499,325.818,256,325.818z M256,232.727c-12.833,0-23.273,10.44-23.273,23.273
	c0,12.833,10.44,23.273,23.273,23.273c12.833,0,23.273-10.44,23.273-23.273C279.273,243.167,268.833,232.727,256,232.727z"/>
<path style="fill:#6398DE;" d="M256,186.182v46.545c12.833,0,23.273,10.44,23.273,23.273c0,12.833-10.44,23.273-23.273,23.273
	v46.545c38.499,0,69.818-31.322,69.818-69.818S294.499,186.182,256,186.182z"/>
</svg>